<svg width="770" height="438" viewBox="0 0 770 438" fill="none" xmlns="http://www.w3.org/2000/svg">
  <path fill-rule="evenodd" clip-rule="evenodd" d="M74.3513 15.2044C71.3179 21.161 71.3179 28.9588 71.3179 44.5542V386.368C71.3179 399.364 71.3179 405.863 73.8457 410.826C76.0693 415.193 79.6173 418.743 83.9813 420.967C88.9425 423.497 95.4371 423.497 108.426 423.497H660.414C673.403 423.497 679.898 423.497 684.859 420.967C689.223 418.743 692.771 415.193 694.995 410.826C697.523 405.863 697.523 399.364 697.523 386.368V44.5542C697.523 28.9588 697.523 21.161 694.489 15.2044C691.821 9.96475 687.563 5.7048 682.326 3.03507C676.373 0 668.58 0 652.993 0H115.848C100.261 0 92.4675 0 86.514 3.03507C81.2772 5.7048 77.0196 9.96475 74.3513 15.2044ZM678.968 32.4874H89.8721V400.291H678.968V32.4874Z" fill="url(#paint0_linear)"/>
  <path fill-rule="evenodd" clip-rule="evenodd" d="M74.3513 15.2044C71.3179 21.161 71.3179 28.9588 71.3179 44.5542V386.368C71.3179 399.364 71.3179 405.863 73.8457 410.826C76.0693 415.193 79.6173 418.743 83.9813 420.967C88.9425 423.497 95.4371 423.497 108.426 423.497H660.414C673.403 423.497 679.898 423.497 684.859 420.967C689.223 418.743 692.771 415.193 694.995 410.826C697.523 405.863 697.523 399.364 697.523 386.368V44.5542C697.523 28.9588 697.523 21.161 694.489 15.2044C691.821 9.96475 687.563 5.7048 682.326 3.03507C676.373 0 668.58 0 652.993 0H115.848C100.261 0 92.4675 0 86.514 3.03507C81.2772 5.7048 77.0196 9.96475 74.3513 15.2044ZM678.968 32.4874H89.8721V400.291H678.968V32.4874Z" fill="url(#paint1_linear)" fill-opacity="0.06"/>
  <path d="M71.8179 44.5542C71.8179 36.7482 71.8183 30.9238 72.1954 26.3054C72.572 21.6929 73.322 18.3274 74.7969 15.4313C77.4172 10.2857 81.5984 6.10228 86.7411 3.48053C89.6356 2.00492 92.9992 1.25458 97.6092 0.877722C102.225 0.500389 108.046 0.5 115.848 0.5H652.993C660.794 0.5 666.616 0.500389 671.231 0.877722C675.841 1.25458 679.205 2.00492 682.099 3.48053C687.242 6.10228 691.423 10.2857 694.044 15.4313C695.519 18.3274 696.268 21.6929 696.645 26.3054C697.022 30.9238 697.023 36.7482 697.023 44.5542V386.368C697.023 392.875 697.022 397.724 696.708 401.569C696.395 405.407 695.771 408.2 694.549 410.599C692.374 414.872 688.902 418.345 684.632 420.522C682.234 421.745 679.443 422.369 675.606 422.682C671.764 422.996 666.917 422.997 660.414 422.997H108.426C101.923 422.997 97.0764 422.996 93.2341 422.682C89.3976 422.369 86.6068 421.745 84.2084 420.522C79.9385 418.345 76.467 414.872 74.2913 410.599C73.0692 408.2 72.4457 405.407 72.1322 401.569C71.8183 397.724 71.8179 392.875 71.8179 386.368V44.5542Z" stroke="#212121"/>
  <path fill-rule="evenodd" clip-rule="evenodd" d="M654.384 2.90106H114.456C107.303 2.90106 101.973 2.90151 97.7474 3.2469C93.5291 3.59174 90.4636 4.27752 87.8303 5.61998C83.139 8.0116 79.3248 11.8278 76.9345 16.5216C75.5927 19.1564 74.9073 22.2236 74.5627 26.4442C74.2175 30.6716 74.217 36.0048 74.217 43.1623V380.335C74.217 387.493 74.2175 392.826 74.5627 397.053C74.9073 401.274 75.5927 404.341 76.9345 406.976C79.3248 411.67 83.139 415.486 87.8303 417.877C90.4636 419.22 93.5291 419.906 97.7474 420.251C101.973 420.596 107.303 420.596 114.457 420.596H654.384C661.538 420.596 666.868 420.596 671.093 420.251C675.311 419.906 678.377 419.22 681.01 417.877C685.702 415.486 689.516 411.67 691.906 406.976C693.248 404.341 693.933 401.274 694.278 397.053C694.623 392.826 694.624 387.493 694.624 380.335V43.1623C694.624 36.0048 694.623 30.6716 694.278 26.4442C693.933 22.2236 693.248 19.1564 691.906 16.5216C689.516 11.8278 685.702 8.0116 681.01 5.61998C678.377 4.27752 675.311 3.59174 671.093 3.2469C666.868 2.90151 661.538 2.90106 654.384 2.90106ZM76.4179 16.2583C73.6372 21.7185 73.6372 28.8664 73.6372 43.1623V380.335C73.6372 394.631 73.6372 401.779 76.4179 407.239C78.8638 412.042 82.7666 415.947 87.567 418.394C93.0244 421.177 100.168 421.177 114.457 421.177H654.384C668.672 421.177 675.816 421.177 681.274 418.394C686.074 415.947 689.977 412.042 692.423 407.239C695.203 401.779 695.203 394.631 695.203 380.335V43.1623C695.203 28.8664 695.203 21.7185 692.423 16.2583C689.977 11.4553 686.074 7.55032 681.274 5.10308C675.816 2.32093 668.672 2.32093 654.384 2.32093H114.456C100.168 2.32093 93.0244 2.32093 87.567 5.10308C82.7666 7.55032 78.8638 11.4553 76.4179 16.2583Z" fill="#424242"/>
  <path fill-rule="evenodd" clip-rule="evenodd" d="M655.08 4.06186H113.761C106.932 4.06186 101.845 4.06232 97.8133 4.3919C93.7884 4.72093 90.866 5.37509 88.3568 6.65432C83.8837 8.93471 80.2469 12.5734 77.9678 17.0489C76.6892 19.5596 76.0354 22.4835 75.7066 26.5106C75.3771 30.5445 75.3767 35.6341 75.3767 42.4667V381.032C75.3767 387.865 75.3771 392.954 75.7066 396.988C76.0354 401.015 76.6892 403.939 77.9678 406.45C80.2469 410.925 83.8837 414.564 88.3568 416.844C90.866 418.123 93.7884 418.778 97.8133 419.107C101.845 419.436 106.932 419.437 113.761 419.437H655.08C661.909 419.437 666.996 419.436 671.027 419.107C675.052 418.778 677.975 418.123 680.484 416.844C684.957 414.564 688.594 410.925 690.873 406.45C692.152 403.939 692.805 401.015 693.134 396.988C693.464 392.954 693.464 387.865 693.464 381.032V42.4666C693.464 35.6341 693.464 30.5445 693.134 26.5106C692.805 22.4835 692.152 19.5596 690.873 17.0489C688.594 12.5734 684.957 8.93471 680.484 6.65432C677.975 5.37509 675.052 4.72093 671.027 4.3919C666.996 4.06232 661.909 4.06186 655.08 4.06186ZM77.4511 16.7856C74.7969 21.9976 74.7969 28.8206 74.7969 42.4667V381.032C74.7969 394.678 74.7969 401.501 77.4511 406.713C79.7859 411.298 83.5113 415.025 88.0935 417.361C93.3028 420.017 100.122 420.017 113.761 420.017H655.08C668.719 420.017 675.538 420.017 680.747 417.361C685.329 415.025 689.055 411.298 691.39 406.713C694.044 401.501 694.044 394.678 694.044 381.032V42.4666C694.044 28.8206 694.044 21.9976 691.39 16.7856C689.055 12.2009 685.329 8.47343 680.747 6.13742C675.538 3.48173 668.719 3.48173 655.08 3.48173H113.761C100.122 3.48173 93.3028 3.48173 88.0935 6.13742C83.5113 8.47343 79.7859 12.2009 77.4511 16.7856Z" fill="#424242"/>
  <g filter="url(#filter0_i)">
    <ellipse cx="384.421" cy="17.9848" rx="2.89909" ry="2.90119" fill="#262626"/>
  </g>
  <rect y="413.054" width="770" height="13.9232" rx="2" fill="#404040"/>
  <rect y="413.054" width="770" height="13.9232" rx="2" fill="url(#paint2_linear)"/>
  <path d="M66.4644 434.515C22.5805 434.515 5.0295 429.49 1.15967 426.977H769.13C763.326 432.775 721.53 434.611 700.924 434.515H66.4644Z" fill="#1E1E1E"/>
  <path d="M66.4644 434.515C22.5805 434.515 5.0295 429.49 1.15967 426.977H769.13C763.326 432.775 721.53 434.611 700.924 434.515H66.4644Z" fill="url(#paint3_linear)" fill-opacity="0.8"/>
  <g filter="url(#filter1_di)">
    <path d="M321.22 413.054H448.78V413.054C448.78 418.821 444.105 423.497 438.338 423.497H331.662C325.895 423.497 321.22 418.821 321.22 413.054V413.054Z" fill="#444444"/>
  </g>
  <g filter="url(#filter2_i)">
    <rect x="89.292" y="31.3273" width="589.096" height="368.384" fill="white" fill-opacity="0.01"/>
  </g>
  <rect x="88.292" y="30.3273" width="591.096" height="370.384" stroke="#2B2B2B" stroke-width="2"/>
  <defs>
    <filter id="filter0_i" x="381.521" y="15.0837" width="5.79819" height="7.80238" filterUnits="userSpaceOnUse" color-interpolation-filters="sRGB">
      <feFlood flood-opacity="0" result="BackgroundImageFix"/>
      <feBlend mode="normal" in="SourceGraphic" in2="BackgroundImageFix" result="shape"/>
      <feColorMatrix in="SourceAlpha" type="matrix" values="0 0 0 0 0 0 0 0 0 0 0 0 0 0 0 0 0 0 127 0" result="hardAlpha"/>
      <feOffset dy="2"/>
      <feGaussianBlur stdDeviation="1.5"/>
      <feComposite in2="hardAlpha" operator="arithmetic" k2="-1" k3="1"/>
      <feColorMatrix type="matrix" values="0 0 0 0 0 0 0 0 0 0 0 0 0 0 0 0 0 0 0.08 0"/>
      <feBlend mode="normal" in2="shape" result="effect1_innerShadow"/>
    </filter>
    <filter id="filter1_di" x="320.22" y="409.054" width="129.56" height="16.4424" filterUnits="userSpaceOnUse" color-interpolation-filters="sRGB">
      <feFlood flood-opacity="0" result="BackgroundImageFix"/>
      <feColorMatrix in="SourceAlpha" type="matrix" values="0 0 0 0 0 0 0 0 0 0 0 0 0 0 0 0 0 0 127 0"/>
      <feOffset dy="1"/>
      <feGaussianBlur stdDeviation="0.5"/>
      <feColorMatrix type="matrix" values="0 0 0 0 0.317708 0 0 0 0 0.317708 0 0 0 0 0.317708 0 0 0 1 0"/>
      <feBlend mode="normal" in2="BackgroundImageFix" result="effect1_dropShadow"/>
      <feBlend mode="normal" in="SourceGraphic" in2="effect1_dropShadow" result="shape"/>
      <feColorMatrix in="SourceAlpha" type="matrix" values="0 0 0 0 0 0 0 0 0 0 0 0 0 0 0 0 0 0 127 0" result="hardAlpha"/>
      <feOffset dy="-4"/>
      <feGaussianBlur stdDeviation="6"/>
      <feComposite in2="hardAlpha" operator="arithmetic" k2="-1" k3="1"/>
      <feColorMatrix type="matrix" values="0 0 0 0 0 0 0 0 0 0 0 0 0 0 0 0 0 0 0.26 0"/>
      <feBlend mode="normal" in2="shape" result="effect2_innerShadow"/>
    </filter>
    <filter id="filter2_i" x="87.292" y="29.3273" width="593.096" height="382.384" filterUnits="userSpaceOnUse" color-interpolation-filters="sRGB">
      <feFlood flood-opacity="0" result="BackgroundImageFix"/>
      <feBlend mode="normal" in="SourceGraphic" in2="BackgroundImageFix" result="shape"/>
      <feColorMatrix in="SourceAlpha" type="matrix" values="0 0 0 0 0 0 0 0 0 0 0 0 0 0 0 0 0 0 127 0" result="hardAlpha"/>
      <feOffset dy="10"/>
      <feGaussianBlur stdDeviation="10"/>
      <feComposite in2="hardAlpha" operator="arithmetic" k2="-1" k3="1"/>
      <feColorMatrix type="matrix" values="0 0 0 0 0 0 0 0 0 0 0 0 0 0 0 0 0 0 0.05 0"/>
      <feBlend mode="normal" in2="shape" result="effect1_innerShadow"/>
    </filter>
    <linearGradient id="paint0_linear" x1="384.42" y1="0" x2="384.42" y2="423.497" gradientUnits="userSpaceOnUse">
      <stop stop-color="#343434"/>
      <stop offset="1" stop-color="#2A2A2A"/>
    </linearGradient>
    <linearGradient id="paint1_linear" x1="223.81" y1="413.634" x2="223.81" y2="408.993" gradientUnits="userSpaceOnUse">
      <stop/>
      <stop offset="1" stop-color="white" stop-opacity="0"/>
    </linearGradient>
    <linearGradient id="paint2_linear" x1="385" y1="413.054" x2="385" y2="419.436" gradientUnits="userSpaceOnUse">
      <stop stop-color="#404040"/>
      <stop offset="1" stop-color="#404040" stop-opacity="0"/>
    </linearGradient>
    <linearGradient id="paint3_linear" x1="385.29" y1="443.5" x2="385.29" y2="426.977" gradientUnits="userSpaceOnUse">
      <stop/>
      <stop offset="1" stop-color="white" stop-opacity="0"/>
    </linearGradient>
  </defs>
</svg>
